<mxfile host="app.diagrams.net" agent="Mozilla/5.0 (Windows NT 10.0; Win64; x64; rv:134.0) Gecko/20100101 Firefox/134.0" version="26.0.6">
  <diagram id="l8hXMBHkgcEJcSW0mbfh" name="Page-1">
    <mxGraphModel dx="2072" dy="1182" grid="1" gridSize="10" guides="1" tooltips="1" connect="1" arrows="1" fold="1" page="1" pageScale="1" pageWidth="1169" pageHeight="827" math="0" shadow="0">
      <root>
        <mxCell id="0" />
        <mxCell id="1" parent="0" />
        <mxCell id="8--HhbSZYtI3ddgJnD71-26" style="edgeStyle=none;rounded=0;orthogonalLoop=1;jettySize=auto;html=1;sourcePerimeterSpacing=5;endArrow=none;endFill=0;targetPerimeterSpacing=5;" parent="1" source="8--HhbSZYtI3ddgJnD71-11" target="QcOVijaHHRGTlEAZ3afK-4" edge="1">
          <mxGeometry relative="1" as="geometry">
            <mxPoint x="563.8222222222221" y="95" as="targetPoint" />
          </mxGeometry>
        </mxCell>
        <mxCell id="8--HhbSZYtI3ddgJnD71-27" style="edgeStyle=none;rounded=0;orthogonalLoop=1;jettySize=auto;html=1;sourcePerimeterSpacing=5;endArrow=none;endFill=0;targetPerimeterSpacing=5;" parent="1" source="QcOVijaHHRGTlEAZ3afK-26" target="QcOVijaHHRGTlEAZ3afK-20" edge="1">
          <mxGeometry relative="1" as="geometry">
            <mxPoint x="770" y="540" as="sourcePoint" />
            <mxPoint x="680" y="420" as="targetPoint" />
          </mxGeometry>
        </mxCell>
        <mxCell id="8--HhbSZYtI3ddgJnD71-28" style="edgeStyle=none;rounded=0;orthogonalLoop=1;jettySize=auto;html=1;sourcePerimeterSpacing=5;endArrow=none;endFill=0;targetPerimeterSpacing=5;" parent="1" source="QcOVijaHHRGTlEAZ3afK-24" target="QcOVijaHHRGTlEAZ3afK-20" edge="1">
          <mxGeometry relative="1" as="geometry">
            <mxPoint x="940" y="660" as="sourcePoint" />
            <mxPoint x="820" y="320" as="targetPoint" />
          </mxGeometry>
        </mxCell>
        <mxCell id="8--HhbSZYtI3ddgJnD71-29" style="edgeStyle=none;rounded=0;orthogonalLoop=1;jettySize=auto;html=1;sourcePerimeterSpacing=5;endArrow=none;endFill=0;targetPerimeterSpacing=5;" parent="1" source="QcOVijaHHRGTlEAZ3afK-1" target="QcOVijaHHRGTlEAZ3afK-13" edge="1">
          <mxGeometry relative="1" as="geometry">
            <mxPoint x="875" y="227.54054054054063" as="targetPoint" />
          </mxGeometry>
        </mxCell>
        <mxCell id="8--HhbSZYtI3ddgJnD71-30" style="edgeStyle=none;rounded=0;orthogonalLoop=1;jettySize=auto;html=1;sourcePerimeterSpacing=5;endArrow=none;endFill=0;targetPerimeterSpacing=5;" parent="1" source="QcOVijaHHRGTlEAZ3afK-4" target="QcOVijaHHRGTlEAZ3afK-13" edge="1">
          <mxGeometry relative="1" as="geometry">
            <mxPoint x="853" y="327.33333333333326" as="targetPoint" />
          </mxGeometry>
        </mxCell>
        <mxCell id="8--HhbSZYtI3ddgJnD71-31" style="edgeStyle=none;rounded=0;orthogonalLoop=1;jettySize=auto;html=1;sourcePerimeterSpacing=5;endArrow=none;endFill=0;targetPerimeterSpacing=5;" parent="1" source="8--HhbSZYtI3ddgJnD71-11" target="QcOVijaHHRGTlEAZ3afK-1" edge="1">
          <mxGeometry relative="1" as="geometry" />
        </mxCell>
        <mxCell id="8--HhbSZYtI3ddgJnD71-32" style="edgeStyle=none;rounded=0;orthogonalLoop=1;jettySize=auto;html=1;sourcePerimeterSpacing=5;endArrow=none;endFill=0;targetPerimeterSpacing=5;" parent="1" source="QcOVijaHHRGTlEAZ3afK-4" target="QcOVijaHHRGTlEAZ3afK-16" edge="1">
          <mxGeometry relative="1" as="geometry">
            <mxPoint x="545" y="402" as="sourcePoint" />
            <mxPoint x="387" y="402" as="targetPoint" />
          </mxGeometry>
        </mxCell>
        <mxCell id="8--HhbSZYtI3ddgJnD71-33" style="edgeStyle=none;rounded=0;orthogonalLoop=1;jettySize=auto;html=1;sourcePerimeterSpacing=5;endArrow=none;endFill=0;targetPerimeterSpacing=5;" parent="1" source="QcOVijaHHRGTlEAZ3afK-4" target="QcOVijaHHRGTlEAZ3afK-18" edge="1">
          <mxGeometry relative="1" as="geometry">
            <mxPoint x="545" y="418.91666666666674" as="sourcePoint" />
            <mxPoint x="411" y="497.08333333333326" as="targetPoint" />
          </mxGeometry>
        </mxCell>
        <mxCell id="8--HhbSZYtI3ddgJnD71-34" style="edgeStyle=none;rounded=0;orthogonalLoop=1;jettySize=auto;html=1;sourcePerimeterSpacing=5;endArrow=none;endFill=0;targetPerimeterSpacing=5;exitX=0.5;exitY=0;exitDx=0;exitDy=0;" parent="1" source="QcOVijaHHRGTlEAZ3afK-17" target="QcOVijaHHRGTlEAZ3afK-22" edge="1">
          <mxGeometry relative="1" as="geometry">
            <mxPoint x="553.476923076923" y="431" as="sourcePoint" />
            <mxPoint x="502.52307692307704" y="503" as="targetPoint" />
          </mxGeometry>
        </mxCell>
        <mxCell id="8--HhbSZYtI3ddgJnD71-35" style="edgeStyle=none;rounded=0;orthogonalLoop=1;jettySize=auto;html=1;sourcePerimeterSpacing=5;endArrow=none;endFill=0;targetPerimeterSpacing=5;" parent="1" source="QcOVijaHHRGTlEAZ3afK-13" target="QcOVijaHHRGTlEAZ3afK-37" edge="1">
          <mxGeometry relative="1" as="geometry">
            <mxPoint x="380" y="260" as="sourcePoint" />
            <mxPoint x="260" y="420" as="targetPoint" />
          </mxGeometry>
        </mxCell>
        <mxCell id="8--HhbSZYtI3ddgJnD71-36" style="edgeStyle=none;rounded=0;orthogonalLoop=1;jettySize=auto;html=1;sourcePerimeterSpacing=5;endArrow=none;endFill=0;targetPerimeterSpacing=5;" parent="1" source="QcOVijaHHRGTlEAZ3afK-20" target="QcOVijaHHRGTlEAZ3afK-28" edge="1">
          <mxGeometry relative="1" as="geometry">
            <mxPoint x="603" y="425.5625" as="sourcePoint" />
            <mxPoint x="705" y="508.4375" as="targetPoint" />
          </mxGeometry>
        </mxCell>
        <mxCell id="8--HhbSZYtI3ddgJnD71-37" style="edgeStyle=none;rounded=0;orthogonalLoop=1;jettySize=auto;html=1;sourcePerimeterSpacing=5;endArrow=none;endFill=0;targetPerimeterSpacing=5;" parent="1" source="QcOVijaHHRGTlEAZ3afK-20" target="QcOVijaHHRGTlEAZ3afK-30" edge="1">
          <mxGeometry relative="1" as="geometry">
            <mxPoint x="603" y="410.67883211678827" as="sourcePoint" />
            <mxPoint x="680" y="730" as="targetPoint" />
          </mxGeometry>
        </mxCell>
        <mxCell id="8--HhbSZYtI3ddgJnD71-11" value="Internet" style="shape=image;verticalLabelPosition=bottom;verticalAlign=top;imageAspect=0;aspect=fixed;image=data:image/svg+xml,PHN2ZyB4bWxucz0iaHR0cDovL3d3dy53My5vcmcvMjAwMC9zdmciIHZlcnNpb249IjEiIHZpZXdCb3g9IjAgMCA0OCA0OCIgZW5hYmxlLWJhY2tncm91bmQ9Im5ldyAwIDAgNDggNDgiPiYjeGE7ICAgIDxwYXRoIGZpbGw9IiM3Q0IzNDIiIGQ9Ik0yNCw0QzEzLDQsNCwxMyw0LDI0czksMjAsMjAsMjBzMjAtOSwyMC0yMFMzNSw0LDI0LDR6Ii8+JiN4YTsgICAgPHBhdGggZmlsbD0iIzAyNzdCRCIgZD0iTTQ1LDI0YzAsMTEuNy05LjUsMjEtMjEsMjFTMywzNS43LDMsMjRTMTIuMywzLDI0LDNTNDUsMTIuMyw0NSwyNHogTTIzLjgsMzMuN2MwLTAuNC0wLjItMC42LTAuNi0wLjggYy0xLjMtMC40LTIuNS0wLjQtMy42LTEuNWMtMC4yLTAuNC0wLjItMC44LTAuNC0xLjNjLTAuNC0wLjQtMS41LTAuNi0yLjEtMC44Yy0wLjgsMC0xLjcsMC0yLjcsMGMtMC40LDAtMS4xLDAtMS41LDAgYy0wLjYtMC4yLTEuMS0xLjEtMS41LTEuN2MwLTAuMiwwLTAuNi0wLjQtMC42Yy0wLjQtMC4yLTAuOCwwLjItMS4zLDBjLTAuMi0wLjItMC4yLTAuNC0wLjItMC42YzAtMC42LDAuNC0xLjMsMC44LTEuNyBjMC42LTAuNCwxLjMsMC4yLDEuOSwwLjJjMC4yLDAsMC4yLDAsMC40LDAuMmMwLjYsMC4yLDAuOCwxLDAuOCwxLjdjMCwwLjIsMCwwLjQsMCwwLjRjMCwwLjIsMC4yLDAuMiwwLjQsMC4yIGMwLjItMS4xLDAuMi0yLjEsMC40LTMuMmMwLTEuMywxLjMtMi41LDIuMy0yLjljMC40LTAuMiwwLjYsMC4yLDEuMSwwYzEuMy0wLjQsNC40LTEuNywzLjgtMy40Yy0wLjQtMS41LTEuNy0yLjktMy40LTIuNyBjLTAuNCwwLjItMC42LDAuNC0xLDAuNmMtMC42LDAuNC0xLjksMS43LTIuNSwxLjdjLTEuMS0wLjItMS4xLTEuNy0wLjgtMi4zYzAuMi0wLjgsMi4xLTMuNiwzLjQtMy4xYzAuMiwwLjIsMC42LDAuNiwwLjgsMC44IGMwLjQsMC4yLDEuMSwwLjIsMS43LDAuMmMwLjIsMCwwLjQsMCwwLjYtMC4yYzAuMi0wLjIsMC4yLTAuMiwwLjItMC40YzAtMC42LTAuNi0xLjMtMS0xLjdjLTAuNC0wLjQtMS4xLTAuOC0xLjctMS4xIGMtMi4xLTAuNi01LjUsMC4yLTcuMSwxLjdzLTIuOSw0LTMuOCw2LjFjLTAuNCwxLjMtMC44LDIuOS0xLDQuNGMtMC4yLDEtMC40LDEuOSwwLjIsMi45YzAuNiwxLjMsMS45LDIuNSwzLjIsMy40IGMwLjgsMC42LDIuNSwwLjYsMy40LDEuN2MwLjYsMC44LDAuNCwxLjksMC40LDIuOWMwLDEuMywwLjgsMi4zLDEuMywzLjRjMC4yLDAuNiwwLjQsMS41LDAuNiwyLjFjMCwwLjIsMC4yLDEuNSwwLjIsMS43IGMxLjMsMC42LDIuMywxLjMsMy44LDEuN2MwLjIsMCwxLTEuMywxLTEuNWMwLjYtMC42LDEuMS0xLjUsMS43LTEuOWMwLjQtMC4yLDAuOC0wLjQsMS4zLTAuOGMwLjQtMC40LDAuNi0xLjMsMC44LTEuOSBDMjMuOCwzNS4xLDI0LDM0LjMsMjMuOCwzMy43eiBNMjQuMiwxNC4zYzAuMiwwLDAuNC0wLjIsMC44LTAuNGMwLjYtMC40LDEuMy0xLjEsMS45LTEuNWMwLjYtMC40LDEuMy0xLjEsMS43LTEuNSBjMC42LTAuNCwxLjEtMS4zLDEuMy0xLjljMC4yLTAuNCwwLjgtMS4zLDAuNi0xLjljLTAuMi0wLjQtMS4zLTAuNi0xLjctMC44Yy0xLjctMC40LTMuMS0wLjYtNC44LTAuNmMtMC42LDAtMS41LDAuMi0xLjcsMC44IGMtMC4yLDEuMSwwLjYsMC44LDEuNSwxLjFjMCwwLDAuMiwxLjcsMC4yLDEuOWMwLjIsMS0wLjQsMS43LTAuNCwyLjdjMCwwLjYsMCwxLjcsMC40LDIuMUwyNC4yLDE0LjN6IE00MS44LDI5IGMwLjItMC40LDAuMi0xLjEsMC40LTEuNWMwLjItMSwwLjItMi4xLDAuMi0zLjFjMC0yLjEtMC4yLTQuMi0wLjgtNi4xYy0wLjQtMC42LTAuNi0xLjMtMC44LTEuOWMtMC40LTEuMS0xLTIuMS0xLjktMi45IGMtMC44LTEuMS0xLjktNC0zLjgtMy4xYy0wLjYsMC4yLTEsMS0xLjUsMS41Yy0wLjQsMC42LTAuOCwxLjMtMS4zLDEuOWMtMC4yLDAuMi0wLjQsMC42LTAuMiwwLjhjMCwwLjIsMC4yLDAuMiwwLjQsMC4yIGMwLjQsMC4yLDAuNiwwLjIsMSwwLjRjMC4yLDAsMC40LDAuMiwwLjIsMC40YzAsMCwwLDAuMi0wLjIsMC4yYy0xLDEuMS0yLjEsMS45LTMuMSwyLjljLTAuMiwwLjItMC40LDAuNi0wLjQsMC44IGMwLDAuMiwwLjIsMC4yLDAuMiwwLjRjMCwwLjItMC4yLDAuMi0wLjQsMC40Yy0wLjQsMC4yLTAuOCwwLjQtMS4xLDAuNmMtMC4yLDAuNCwwLDEuMS0wLjIsMS41Yy0wLjIsMS4xLTAuOCwxLjktMS4zLDIuOSBjLTAuNCwwLjYtMC42LDEuMy0xLDEuOWMwLDAuOC0wLjIsMS41LDAuMiwyLjFjMSwxLjUsMi45LDAuNiw0LjQsMS4zYzAuNCwwLjIsMC44LDAuMiwxLjEsMC42YzAuNiwwLjYsMC42LDEuNywwLjgsMi4zIGMwLjIsMC44LDAuNCwxLjcsMC44LDIuNWMwLjIsMSwwLjYsMi4xLDAuOCwyLjljMS45LTEuNSwzLjYtMy4xLDQuOC01LjJDNDAuNiwzMi40LDQxLjIsMzAuNyw0MS44LDI5eiIvPiYjeGE7PC9zdmc+;labelBackgroundColor=#ffffff;" parent="1" vertex="1">
          <mxGeometry x="537" y="20" width="48" height="48" as="geometry" />
        </mxCell>
        <mxCell id="QcOVijaHHRGTlEAZ3afK-1" value="" style="image;html=1;image=img/lib/clip_art/networking/Router_128x128.png" parent="1" vertex="1">
          <mxGeometry x="1030" y="90" width="80" height="80" as="geometry" />
        </mxCell>
        <object label="" Starlink_Dish="Starlink Dish" id="QcOVijaHHRGTlEAZ3afK-4">
          <mxCell style="fontColor=#0066CC;verticalAlign=top;verticalLabelPosition=bottom;labelPosition=center;align=center;html=1;outlineConnect=0;fillColor=#CCCCCC;strokeColor=#6881B3;gradientColor=none;gradientDirection=north;strokeWidth=2;shape=mxgraph.networks.satellite_dish;" parent="1" vertex="1">
            <mxGeometry x="40" y="90" width="90" height="98" as="geometry" />
          </mxCell>
        </object>
        <mxCell id="QcOVijaHHRGTlEAZ3afK-7" value="&lt;div&gt;Starlink Dish&lt;/div&gt;&lt;div&gt;192.168.1.1&lt;/div&gt;" style="text;html=1;align=center;verticalAlign=middle;whiteSpace=wrap;rounded=0;" parent="1" vertex="1">
          <mxGeometry x="40" y="200" width="90" height="30" as="geometry" />
        </mxCell>
        <mxCell id="QcOVijaHHRGTlEAZ3afK-12" value="&lt;div&gt;DSL Modem&lt;/div&gt;&lt;div&gt;192.168.2.1&lt;br&gt;&lt;/div&gt;" style="text;html=1;align=center;verticalAlign=middle;whiteSpace=wrap;rounded=0;" parent="1" vertex="1">
          <mxGeometry x="1020" y="180" width="90" height="30" as="geometry" />
        </mxCell>
        <mxCell id="QcOVijaHHRGTlEAZ3afK-13" value="" style="sketch=0;pointerEvents=1;shadow=0;dashed=0;html=1;strokeColor=none;fillColor=#505050;labelPosition=center;verticalLabelPosition=bottom;verticalAlign=top;outlineConnect=0;align=center;shape=mxgraph.office.devices.router;" parent="1" vertex="1">
          <mxGeometry x="533.5" y="167" width="55" height="56" as="geometry" />
        </mxCell>
        <mxCell id="QcOVijaHHRGTlEAZ3afK-15" value="&lt;div&gt;MUX Router&lt;/div&gt;&lt;div&gt;192.168.3.1&lt;/div&gt;&lt;div&gt;&lt;br&gt;&lt;/div&gt;" style="text;html=1;align=center;verticalAlign=middle;whiteSpace=wrap;rounded=0;" parent="1" vertex="1">
          <mxGeometry x="516" y="240" width="90" height="20" as="geometry" />
        </mxCell>
        <mxCell id="QcOVijaHHRGTlEAZ3afK-16" value="" style="sketch=0;verticalLabelPosition=bottom;sketch=0;aspect=fixed;html=1;verticalAlign=top;strokeColor=none;fillColor=#000000;align=center;outlineConnect=0;pointerEvents=1;shape=mxgraph.citrix2.switch;" parent="1" vertex="1">
          <mxGeometry x="60" y="270" width="50" height="27.32" as="geometry" />
        </mxCell>
        <mxCell id="QcOVijaHHRGTlEAZ3afK-17" value="&lt;div&gt;Network Bypass Switch&lt;/div&gt;" style="text;html=1;align=center;verticalAlign=middle;whiteSpace=wrap;rounded=0;" parent="1" vertex="1">
          <mxGeometry x="39" y="300" width="90" height="30" as="geometry" />
        </mxCell>
        <mxCell id="QcOVijaHHRGTlEAZ3afK-18" value="" style="sketch=0;pointerEvents=1;shadow=0;dashed=0;html=1;strokeColor=none;fillColor=#434445;aspect=fixed;labelPosition=center;verticalLabelPosition=bottom;verticalAlign=top;align=center;outlineConnect=0;shape=mxgraph.vvd.wi_fi;" parent="1" vertex="1">
          <mxGeometry x="150" y="247.32" width="50" height="50" as="geometry" />
        </mxCell>
        <mxCell id="QcOVijaHHRGTlEAZ3afK-19" value="&lt;div&gt;Guest WiFi&lt;/div&gt;" style="text;html=1;align=center;verticalAlign=middle;whiteSpace=wrap;rounded=0;" parent="1" vertex="1">
          <mxGeometry x="130" y="300" width="90" height="30" as="geometry" />
        </mxCell>
        <mxCell id="QcOVijaHHRGTlEAZ3afK-20" value="" style="sketch=0;verticalLabelPosition=bottom;sketch=0;aspect=fixed;html=1;verticalAlign=top;strokeColor=none;fillColor=#000000;align=center;outlineConnect=0;pointerEvents=1;shape=mxgraph.citrix2.switch;" parent="1" vertex="1">
          <mxGeometry x="536" y="270" width="50" height="27.32" as="geometry" />
        </mxCell>
        <mxCell id="QcOVijaHHRGTlEAZ3afK-21" value="Internal Network Switch" style="text;html=1;align=center;verticalAlign=middle;whiteSpace=wrap;rounded=0;" parent="1" vertex="1">
          <mxGeometry x="516" y="300" width="90" height="30" as="geometry" />
        </mxCell>
        <mxCell id="QcOVijaHHRGTlEAZ3afK-22" value="" style="sketch=0;pointerEvents=1;shadow=0;dashed=0;html=1;strokeColor=none;fillColor=#505050;labelPosition=center;verticalLabelPosition=bottom;verticalAlign=top;outlineConnect=0;align=center;shape=mxgraph.office.devices.workstation_pc;" parent="1" vertex="1">
          <mxGeometry x="59" y="370" width="53" height="59" as="geometry" />
        </mxCell>
        <mxCell id="QcOVijaHHRGTlEAZ3afK-23" value="&lt;div&gt;Workstation&lt;/div&gt;DHCP" style="text;html=1;align=center;verticalAlign=middle;whiteSpace=wrap;rounded=0;" parent="1" vertex="1">
          <mxGeometry x="40.5" y="429" width="90" height="30" as="geometry" />
        </mxCell>
        <mxCell id="QcOVijaHHRGTlEAZ3afK-24" value="" style="sketch=0;pointerEvents=1;shadow=0;dashed=0;html=1;strokeColor=none;fillColor=#505050;labelPosition=center;verticalLabelPosition=bottom;verticalAlign=top;outlineConnect=0;align=center;shape=mxgraph.office.devices.workstation_pc;" parent="1" vertex="1">
          <mxGeometry x="947" y="370" width="53" height="59" as="geometry" />
        </mxCell>
        <mxCell id="QcOVijaHHRGTlEAZ3afK-25" value="&lt;div&gt;Workstation&lt;/div&gt;DHCP" style="text;html=1;align=center;verticalAlign=middle;whiteSpace=wrap;rounded=0;" parent="1" vertex="1">
          <mxGeometry x="928.5" y="429" width="90" height="30" as="geometry" />
        </mxCell>
        <mxCell id="QcOVijaHHRGTlEAZ3afK-26" value="" style="sketch=0;pointerEvents=1;shadow=0;dashed=0;html=1;strokeColor=none;fillColor=#505050;labelPosition=center;verticalLabelPosition=bottom;verticalAlign=top;outlineConnect=0;align=center;shape=mxgraph.office.devices.workstation_pc;" parent="1" vertex="1">
          <mxGeometry x="947" y="470" width="53" height="59" as="geometry" />
        </mxCell>
        <mxCell id="QcOVijaHHRGTlEAZ3afK-27" value="&lt;div&gt;Workstation&lt;/div&gt;&lt;div&gt;DHCP&lt;/div&gt;" style="text;html=1;align=center;verticalAlign=middle;whiteSpace=wrap;rounded=0;" parent="1" vertex="1">
          <mxGeometry x="928.5" y="529" width="90" height="30" as="geometry" />
        </mxCell>
        <mxCell id="QcOVijaHHRGTlEAZ3afK-28" value="" style="sketch=0;pointerEvents=1;shadow=0;dashed=0;html=1;strokeColor=none;fillColor=#505050;labelPosition=center;verticalLabelPosition=bottom;verticalAlign=top;outlineConnect=0;align=center;shape=mxgraph.office.devices.workstation_pc;" parent="1" vertex="1">
          <mxGeometry x="947" y="569" width="53" height="59" as="geometry" />
        </mxCell>
        <mxCell id="QcOVijaHHRGTlEAZ3afK-29" value="&lt;div&gt;Workstation&lt;/div&gt;DHCP" style="text;html=1;align=center;verticalAlign=middle;whiteSpace=wrap;rounded=0;" parent="1" vertex="1">
          <mxGeometry x="928.5" y="628" width="90" height="30" as="geometry" />
        </mxCell>
        <mxCell id="QcOVijaHHRGTlEAZ3afK-30" value="" style="sketch=0;pointerEvents=1;shadow=0;dashed=0;html=1;strokeColor=none;fillColor=#505050;labelPosition=center;verticalLabelPosition=bottom;verticalAlign=top;outlineConnect=0;align=center;shape=mxgraph.office.devices.workstation_pc;" parent="1" vertex="1">
          <mxGeometry x="947" y="670" width="53" height="59" as="geometry" />
        </mxCell>
        <mxCell id="QcOVijaHHRGTlEAZ3afK-31" value="&lt;div&gt;Workstation&lt;/div&gt;&lt;div&gt;DHCP&lt;/div&gt;" style="text;html=1;align=center;verticalAlign=middle;whiteSpace=wrap;rounded=0;" parent="1" vertex="1">
          <mxGeometry x="928.5" y="729" width="90" height="30" as="geometry" />
        </mxCell>
        <mxCell id="QcOVijaHHRGTlEAZ3afK-32" style="edgeStyle=none;rounded=0;orthogonalLoop=1;jettySize=auto;html=1;sourcePerimeterSpacing=5;endArrow=none;endFill=0;targetPerimeterSpacing=5;" parent="1" source="QcOVijaHHRGTlEAZ3afK-20" target="QcOVijaHHRGTlEAZ3afK-37" edge="1">
          <mxGeometry relative="1" as="geometry">
            <mxPoint x="170" y="610" as="sourcePoint" />
            <mxPoint x="247" y="929.3211678832117" as="targetPoint" />
          </mxGeometry>
        </mxCell>
        <mxCell id="QcOVijaHHRGTlEAZ3afK-33" style="edgeStyle=none;rounded=0;orthogonalLoop=1;jettySize=auto;html=1;sourcePerimeterSpacing=5;endArrow=none;endFill=0;targetPerimeterSpacing=5;" parent="1" source="QcOVijaHHRGTlEAZ3afK-37" target="QcOVijaHHRGTlEAZ3afK-43" edge="1">
          <mxGeometry relative="1" as="geometry">
            <mxPoint x="240" y="690" as="sourcePoint" />
            <mxPoint x="317" y="1009.3211678832117" as="targetPoint" />
          </mxGeometry>
        </mxCell>
        <mxCell id="QcOVijaHHRGTlEAZ3afK-34" style="edgeStyle=none;rounded=0;orthogonalLoop=1;jettySize=auto;html=1;sourcePerimeterSpacing=5;endArrow=none;endFill=0;targetPerimeterSpacing=5;" parent="1" source="QcOVijaHHRGTlEAZ3afK-45" target="QcOVijaHHRGTlEAZ3afK-20" edge="1">
          <mxGeometry relative="1" as="geometry">
            <mxPoint x="320" y="820" as="sourcePoint" />
            <mxPoint x="397" y="1139.3211678832117" as="targetPoint" />
          </mxGeometry>
        </mxCell>
        <mxCell id="QcOVijaHHRGTlEAZ3afK-35" style="edgeStyle=none;rounded=0;orthogonalLoop=1;jettySize=auto;html=1;sourcePerimeterSpacing=5;endArrow=none;endFill=0;targetPerimeterSpacing=5;" parent="1" source="QcOVijaHHRGTlEAZ3afK-20" target="QcOVijaHHRGTlEAZ3afK-49" edge="1">
          <mxGeometry relative="1" as="geometry">
            <mxPoint x="170" y="670" as="sourcePoint" />
            <mxPoint x="300" y="680" as="targetPoint" />
          </mxGeometry>
        </mxCell>
        <mxCell id="QcOVijaHHRGTlEAZ3afK-36" style="edgeStyle=none;rounded=0;orthogonalLoop=1;jettySize=auto;html=1;sourcePerimeterSpacing=5;endArrow=none;endFill=0;targetPerimeterSpacing=5;" parent="1" source="QcOVijaHHRGTlEAZ3afK-47" target="QcOVijaHHRGTlEAZ3afK-20" edge="1">
          <mxGeometry relative="1" as="geometry">
            <mxPoint x="400" y="910" as="sourcePoint" />
            <mxPoint x="477" y="1229.3211678832117" as="targetPoint" />
          </mxGeometry>
        </mxCell>
        <mxCell id="QcOVijaHHRGTlEAZ3afK-37" value="" style="image;html=1;image=img/lib/clip_art/networking/Wireless_Router_128x128.png" parent="1" vertex="1">
          <mxGeometry x="770" y="200" width="80" height="80" as="geometry" />
        </mxCell>
        <mxCell id="QcOVijaHHRGTlEAZ3afK-38" value="&lt;div&gt;Internal WiFi Router&lt;/div&gt;&lt;div&gt;192.168.0.1&lt;br&gt;&lt;/div&gt;" style="text;html=1;align=center;verticalAlign=middle;whiteSpace=wrap;rounded=0;" parent="1" vertex="1">
          <mxGeometry x="752.5" y="280" width="115" height="30" as="geometry" />
        </mxCell>
        <mxCell id="QcOVijaHHRGTlEAZ3afK-43" value="" style="sketch=0;pointerEvents=1;shadow=0;dashed=0;html=1;strokeColor=none;fillColor=#434445;aspect=fixed;labelPosition=center;verticalLabelPosition=bottom;verticalAlign=top;align=center;outlineConnect=0;shape=mxgraph.vvd.wi_fi;" parent="1" vertex="1">
          <mxGeometry x="980" y="230.98" width="50" height="50" as="geometry" />
        </mxCell>
        <mxCell id="QcOVijaHHRGTlEAZ3afK-44" value="Internal WiFi" style="text;html=1;align=center;verticalAlign=middle;whiteSpace=wrap;rounded=0;" parent="1" vertex="1">
          <mxGeometry x="960" y="283.66" width="90" height="30" as="geometry" />
        </mxCell>
        <mxCell id="QcOVijaHHRGTlEAZ3afK-45" value="" style="image;html=1;image=img/lib/clip_art/computers/Printer_128x128.png" parent="1" vertex="1">
          <mxGeometry x="521" y="359.5" width="80" height="80" as="geometry" />
        </mxCell>
        <mxCell id="QcOVijaHHRGTlEAZ3afK-46" value="&lt;div&gt;Printer&lt;/div&gt;&lt;div&gt;192.168.0.253&lt;/div&gt;" style="text;html=1;align=center;verticalAlign=middle;whiteSpace=wrap;rounded=0;" parent="1" vertex="1">
          <mxGeometry x="516" y="440" width="90" height="30" as="geometry" />
        </mxCell>
        <mxCell id="QcOVijaHHRGTlEAZ3afK-47" value="" style="shape=image;html=1;verticalAlign=top;verticalLabelPosition=bottom;labelBackgroundColor=#ffffff;imageAspect=0;aspect=fixed;image=https://cdn1.iconfinder.com/data/icons/nuvola2/128x128/devices/scanner.png" parent="1" vertex="1">
          <mxGeometry x="400" y="359.5" width="82" height="82" as="geometry" />
        </mxCell>
        <mxCell id="QcOVijaHHRGTlEAZ3afK-48" value="&lt;div&gt;Scanner&lt;/div&gt;&lt;div&gt;192.168.0.252&lt;/div&gt;" style="text;html=1;align=center;verticalAlign=middle;whiteSpace=wrap;rounded=0;" parent="1" vertex="1">
          <mxGeometry x="396" y="441.5" width="90" height="30" as="geometry" />
        </mxCell>
        <mxCell id="QcOVijaHHRGTlEAZ3afK-49" value="" style="image;points=[];aspect=fixed;html=1;align=center;shadow=0;dashed=0;image=img/lib/allied_telesis/storage/Datacenter_Server_Rack_Storage_Unit_Small.svg;" parent="1" vertex="1">
          <mxGeometry x="290" y="367" width="77.4" height="67.2" as="geometry" />
        </mxCell>
        <mxCell id="QcOVijaHHRGTlEAZ3afK-50" value="&lt;div&gt;NAS&lt;br&gt;&lt;/div&gt;&lt;div&gt;192.168.0.254&lt;/div&gt;" style="text;html=1;align=center;verticalAlign=middle;whiteSpace=wrap;rounded=0;" parent="1" vertex="1">
          <mxGeometry x="283.7" y="440" width="90" height="30" as="geometry" />
        </mxCell>
      </root>
    </mxGraphModel>
  </diagram>
</mxfile>
